0
SECTION
2
HEADER
9
$INSUNITS
70
4
9
$ACADVER
1
AC1014
9
$HANDSEED
5
FFFF
0
ENDSEC
0
SECTION
2
TABLES
0
TABLE
2
VPORT
5
8
100
AcDbSymbolTable
0
ENDTAB
0
TABLE
2
LTYPE
5
5
100
AcDbSymbolTable
0
LTYPE
5
14
100
AcDbSymbolTableRecord
100
AcDbLinetypeTableRecord
2
BYBLOCK
70
0
0
LTYPE
5
15
100
AcDbSymbolTableRecord
100
AcDbLinetypeTableRecord
2
BYLAYER
70
0
0
ENDTAB
0
TABLE
2
LAYER
5
2
100
AcDbSymbolTable
70
2
0
LAYER
5
50
100
AcDbSymbolTableRecord
100
AcDbLayerTableRecord
2
0
70
0
6
CONTINUOUS
0
ENDTAB
0
TABLE
2
STYLE
5
3
100
AcDbSymbolTable
70
1
0
STYLE
5
11
100
AcDbSymbolTableRecord
100
AcDbTextStyleTableRecord
2
STANDARD
70
0
0
ENDTAB
0
TABLE
2
VIEW
5
6
100
AcDbSymbolTable
70
0
0
ENDTAB
0
TABLE
2
UCS
5
7
100
AcDbSymbolTable
70
0
0
ENDTAB
0
TABLE
2
APPID
5
9
100
AcDbSymbolTable
70
2
0
APPID
5
12
100
AcDbSymbolTableRecord
100
AcDbRegAppTableRecord
2
ACAD
70
0
0
ENDTAB
0
TABLE
2
DIMSTYLE
5
A
100
AcDbSymbolTable
70
1
0
ENDTAB
0
TABLE
2
BLOCK_RECORD
5
1
100
AcDbSymbolTable
70
1
0
BLOCK_RECORD
5
1F
100
AcDbSymbolTableRecord
100
AcDbBlockTableRecord
2
*MODEL_SPACE
0
BLOCK_RECORD
5
1B
100
AcDbSymbolTableRecord
100
AcDbBlockTableRecord
2
*PAPER_SPACE
0
ENDTAB
0
ENDSEC
0
SECTION
2
BLOCKS
0
BLOCK
5
20
100
AcDbEntity
100
AcDbBlockBegin
2
*MODEL_SPACE
0
ENDBLK
5
21
100
AcDbEntity
100
AcDbBlockEnd
0
BLOCK
5
1C
100
AcDbEntity
100
AcDbBlockBegin
2
*PAPER_SPACE
0
ENDBLK
5
1D
100
AcDbEntity
100
AcDbBlockEnd
0
ENDSEC
0
SECTION
2
ENTITIES
0
LWPOLYLINE
5
100
100
AcDbEntity
8
0
100
AcDbPolyline
90
4
70
1
43
0.0
10
2.5249999999999999
20
-16.524999999999999
10
2.5249999999999999
20
-2.5249999999999995
10
16.524999999999999
20
-2.5249999999999999
10
16.524999999999999
20
-16.524999999999999
0
LWPOLYLINE
5
101
100
AcDbEntity
8
0
100
AcDbPolyline
90
4
70
1
43
0.0
10
21.575000000000006
20
-2.5249999999999999
10
35.57500000000001
20
-2.5249999999999999
10
35.57500000000001
20
-16.524999999999999
10
21.575000000000006
20
-16.524999999999999
0
LWPOLYLINE
5
102
100
AcDbEntity
8
0
100
AcDbPolyline
90
4
70
1
43
0.0
10
54.625
20
-2.5249999999999999
10
54.625
20
-16.524999999999999
10
40.625
20
-16.524999999999999
10
40.625
20
-2.5249999999999999
0
LWPOLYLINE
5
103
100
AcDbEntity
8
0
100
AcDbPolyline
90
4
70
1
43
0.0
10
73.674999999999983
20
-2.5249999999999999
10
73.674999999999983
20
-16.524999999999999
10
59.675000000000004
20
-16.524999999999999
10
59.675000000000004
20
-2.5249999999999999
0
LWPOLYLINE
5
104
100
AcDbEntity
8
0
100
AcDbPolyline
90
4
70
1
43
0.0
10
92.724999999999994
20
-16.524999999999999
10
78.724999999999994
20
-16.524999999999999
10
78.724999999999994
20
-2.5249999999999995
10
92.724999999999994
20
-2.5249999999999999
0
LWPOLYLINE
5
105
100
AcDbEntity
8
0
100
AcDbPolyline
90
4
70
1
43
0.0
10
111.77500000000002
20
-2.5249999999999999
10
111.77500000000002
20
-16.524999999999999
10
97.775000000000034
20
-16.524999999999999
10
97.775000000000034
20
-2.5249999999999995
0
LWPOLYLINE
5
106
100
AcDbEntity
8
0
100
AcDbPolyline
90
4
70
1
43
0.0
10
130.82499999999999
20
-2.5249999999999999
10
130.82499999999999
20
-16.524999999999999
10
116.82500000000003
20
-16.524999999999999
10
116.82500000000003
20
-2.5249999999999999
0
LWPOLYLINE
5
107
100
AcDbEntity
8
0
100
AcDbPolyline
90
4
70
1
43
0.0
10
149.875
20
-16.524999999999999
10
135.875
20
-16.524999999999999
10
135.875
20
-2.5249999999999995
10
149.875
20
-2.5249999999999999
0
LWPOLYLINE
5
108
100
AcDbEntity
8
0
100
AcDbPolyline
90
4
70
1
43
0.0
10
168.92500000000001
20
-16.524999999999999
10
154.92500000000001
20
-16.524999999999999
10
154.92500000000001
20
-2.5249999999999999
10
168.92500000000001
20
-2.5249999999999999
0
LWPOLYLINE
5
109
100
AcDbEntity
8
0
100
AcDbPolyline
90
4
70
1
43
0.0
10
187.97499999999999
20
-16.524999999999999
10
173.97500000000005
20
-16.524999999999999
10
173.97500000000005
20
-2.5249999999999995
10
187.97499999999999
20
-2.5249999999999999
0
LWPOLYLINE
5
110
100
AcDbEntity
8
0
100
AcDbPolyline
90
6
70
1
43
0.0
10
18.90625
20
-25.907574208112926
10
18.90625
20
-35.57500000000001
10
4.9062500000000009
20
-35.57500000000001
10
4.90625
20
-21.575000000000006
10
18.90625
20
-21.575000000000006
10
18.90625
20
-21.717425791887074
42
-1.070964451431528
0
LWPOLYLINE
5
111
100
AcDbEntity
8
0
100
AcDbPolyline
90
4
70
1
43
0.0
10
28.71875
20
-21.575000000000006
10
42.718750000000007
20
-21.575000000000006
10
42.718750000000007
20
-35.57500000000001
10
28.71875
20
-35.57500000000001
0
LWPOLYLINE
5
112
100
AcDbEntity
8
0
100
AcDbPolyline
90
4
70
1
43
0.0
10
64.150000000000006
20
-35.57500000000001
10
50.150000000000013
20
-35.57500000000001
10
50.150000000000013
20
-21.575000000000006
10
64.150000000000006
20
-21.575000000000006
0
LWPOLYLINE
5
113
100
AcDbEntity
8
0
100
AcDbPolyline
90
4
70
1
43
0.0
10
69.200000000000003
20
-21.575000000000006
10
83.200000000000003
20
-21.575000000000006
10
83.200000000000003
20
-35.57500000000001
10
69.200000000000003
20
-35.57500000000001
0
LWPOLYLINE
5
114
100
AcDbEntity
8
0
100
AcDbPolyline
90
4
70
1
43
0.0
10
88.250000000000014
20
-21.575000000000006
10
102.25000000000001
20
-21.575000000000006
10
102.25000000000001
20
-35.57500000000001
10
88.250000000000014
20
-35.57500000000001
0
LWPOLYLINE
5
115
100
AcDbEntity
8
0
100
AcDbPolyline
90
4
70
1
43
0.0
10
121.30000000000001
20
-21.575000000000006
10
121.30000000000001
20
-35.57500000000001
10
107.30000000000001
20
-35.57500000000001
10
107.30000000000001
20
-21.575000000000006
0
LWPOLYLINE
5
116
100
AcDbEntity
8
0
100
AcDbPolyline
90
4
70
1
43
0.0
10
140.34999999999999
20
-35.57500000000001
10
126.34999999999999
20
-35.57500000000001
10
126.34999999999999
20
-21.575000000000006
10
140.34999999999999
20
-21.575000000000006
0
LWPOLYLINE
5
117
100
AcDbEntity
8
0
100
AcDbPolyline
90
4
70
1
43
0.0
10
161.78125
20
-35.57500000000001
10
147.78125
20
-35.57500000000001
10
147.78125
20
-21.575000000000006
10
161.78125
20
-21.575000000000006
0
LWPOLYLINE
5
118
100
AcDbEntity
8
0
100
AcDbPolyline
90
6
70
1
43
0.0
10
171.59375
20
-35.57500000000001
10
171.59375
20
-25.907574208112926
42
-1.0709644514324075
10
171.59375
20
-21.717425791887326
10
171.59375
20
-21.575000000000006
10
185.59375
20
-21.575000000000006
10
185.59375
20
-35.57500000000001
0
LWPOLYLINE
5
119
100
AcDbEntity
8
0
100
AcDbPolyline
90
4
70
1
43
0.0
10
21.287500000000001
20
-40.625
10
21.287500000000001
20
-54.625
10
7.2874999999999979
20
-54.625
10
7.2874999999999988
20
-40.625
0
LWPOLYLINE
5
120
100
AcDbEntity
8
0
100
AcDbPolyline
90
4
70
1
43
0.0
10
35.862499999999997
20
-54.625
10
35.862499999999997
20
-40.625
10
49.862499999999997
20
-40.625
10
49.862499999999997
20
-54.625
0
LWPOLYLINE
5
121
100
AcDbEntity
8
0
100
AcDbPolyline
90
4
70
1
43
0.0
10
59.675000000000004
20
-40.625
10
73.674999999999983
20
-40.625
10
73.674999999999983
20
-54.625
10
59.675000000000004
20
-54.625
0
LWPOLYLINE
5
122
100
AcDbEntity
8
0
100
AcDbPolyline
90
4
70
1
43
0.0
10
92.724999999999994
20
-40.625
10
92.724999999999994
20
-54.625
10
78.724999999999994
20
-54.625
10
78.724999999999994
20
-40.625
0
LWPOLYLINE
5
123
100
AcDbEntity
8
0
100
AcDbPolyline
90
4
70
1
43
0.0
10
111.77500000000002
20
-54.625
10
97.775000000000034
20
-54.625
10
97.775000000000034
20
-40.625
10
111.77500000000002
20
-40.625
0
LWPOLYLINE
5
124
100
AcDbEntity
8
0
100
AcDbPolyline
90
4
70
1
43
0.0
10
116.82500000000003
20
-54.625
10
116.82500000000003
20
-40.625
10
130.82499999999999
20
-40.625
10
130.82499999999999
20
-54.625
0
LWPOLYLINE
5
125
100
AcDbEntity
8
0
100
AcDbPolyline
90
4
70
1
43
0.0
10
140.63749999999999
20
-40.625
10
154.63749999999999
20
-40.625
10
154.63749999999999
20
-54.625
10
140.63749999999999
20
-54.625
0
LWPOLYLINE
5
126
100
AcDbEntity
8
0
100
AcDbPolyline
90
4
70
1
43
0.0
10
169.21250000000001
20
-54.625
10
169.21250000000001
20
-40.625
10
183.21250000000003
20
-40.625
10
183.21250000000003
20
-54.625
0
LWPOLYLINE
5
127
100
AcDbEntity
8
0
100
AcDbPolyline
90
4
70
1
43
0.0
10
23.668749999999999
20
-73.674999999999983
10
9.6687499999999993
20
-73.674999999999983
10
9.6687499999999993
20
-59.675000000000004
10
23.668749999999999
20
-59.675000000000004
0
LWPOLYLINE
5
128
100
AcDbEntity
8
0
100
AcDbPolyline
90
4
70
1
43
0.0
10
166.83125000000001
20
-73.674999999999983
10
166.83125000000001
20
-59.675000000000004
10
180.83125000000001
20
-59.675000000000004
10
180.83125000000001
20
-73.674999999999983
0
LWPOLYLINE
5
129
100
AcDbEntity
8
0
100
AcDbPolyline
90
4
70
1
43
0.0
10
57.006250000000016
20
-78.4375
10
43.006250000000001
20
-78.4375
10
43.006250000000001
20
-64.4375
10
57.006250000000016
20
-64.4375
0
LWPOLYLINE
5
130
100
AcDbEntity
8
0
100
AcDbPolyline
90
4
70
1
43
0.0
10
85.581250000000026
20
-78.4375
10
71.581249999999997
20
-78.4375
10
71.581249999999997
20
-64.4375
10
85.581250000000026
20
-64.4375
0
LWPOLYLINE
5
131
100
AcDbEntity
8
0
100
AcDbPolyline
90
4
70
1
43
0.0
10
118.91875
20
-78.4375
10
104.91875
20
-78.4375
10
104.91875
20
-64.4375
10
118.91875
20
-64.4375
0
LWPOLYLINE
5
132
100
AcDbEntity
8
0
100
AcDbPolyline
90
4
70
1
43
0.0
10
133.49375000000003
20
-64.4375
10
147.49375000000001
20
-64.4375
10
147.49375000000001
20
-78.4375
10
133.49375000000003
20
-78.4375
0
LWPOLYLINE
5
133
100
AcDbEntity
8
0
100
AcDbPolyline
90
8
70
1
43
0.0
10
5.8159360091606177e-47
20
-3.0000000000000004
10
-6.6613381477509392e-15
20
-77.962500000000006
42
0.41421356237309848
10
3
20
-80.962500000000006
10
187.50000000000003
20
-80.962500000000006
42
0.41421356237309503
10
190.50000000000006
20
-77.96250000000002
10
190.50000000000006
20
-3.0000000000000036
42
0.41421356237309537
10
187.50000000000003
20
-8.5528470722950261e-49
10
3.0000000000000004
20
0
42
0.41421356237309503
0
CIRCLE
5
134
100
AcDbEntity
8
0
100
AcDbCircle
10
19.049999999999976
20
-57.149999999999643
30
0
40
2.1000000000000014
210
0
220
0
230
1
0
CIRCLE
5
135
100
AcDbEntity
8
0
100
AcDbCircle
10
19.049999999999962
20
-76.199985999999427
30
0
40
1.0000000000000031
210
0
220
0
230
1
0
CIRCLE
5
136
100
AcDbEntity
8
0
100
AcDbCircle
10
19.050000000000011
20
-4.762514000000202
30
0
40
1
210
0
220
0
230
1
0
CIRCLE
5
137
100
AcDbEntity
8
0
100
AcDbCircle
10
171.44999999999828
20
-4.7625140000003263
30
0
40
0.99999999999999445
210
0
220
0
230
1
0
CIRCLE
5
138
100
AcDbEntity
8
0
100
AcDbCircle
10
171.44999999999825
20
-57.14999999999975
30
0
40
2.1000000000000001
210
0
220
0
230
1
0
CIRCLE
5
139
100
AcDbEntity
8
0
100
AcDbCircle
10
171.44999999999825
20
-76.199985999999541
30
0
40
0.99999999999999045
210
0
220
0
230
1
0
ENDSEC
0
SECTION
2
OBJECTS
0
DICTIONARY
5
C
100
AcDbDictionary
3
ACAD_GROUP
350
D
3
ACAD_MLINESTYLE
350
17
0
DICTIONARY
5
D
100
AcDbDictionary
0
DICTIONARY
5
1A
330
C
100
AcDbDictionary
0
DICTIONARY
5
17
100
AcDbDictionary
0
ENDSEC
0
EOF
